<?xml version="1.0" encoding="utf-8"?>
<!-- Generator: Adobe Illustrator 16.0.0, SVG Export Plug-In . SVG Version: 6.00 Build 0)  -->
<!DOCTYPE svg PUBLIC "-//W3C//DTD SVG 1.0//EN" "http://www.w3.org/TR/2001/REC-SVG-20010904/DTD/svg10.dtd">
<svg version="1.0" id="Layer_1" xmlns="http://www.w3.org/2000/svg" xmlns:xlink="http://www.w3.org/1999/xlink" x="0px" y="0px"
	 width="40.14px" height="39px" viewBox="0 0 40.14 39" enable-background="new 0 0 40.14 39" xml:space="preserve">
<rect x="-411.749" y="-104.222" display="none" fill="#45494F" width="1110" height="793.333"/>
<g>
	<g>
		<path fill-rule="evenodd" clip-rule="evenodd" fill="#FFFFFF" d="M13.653,1.27L1.125,13.798c-1.408,1.408-1.262,3.889,0.146,5.298
			c0.021,0.021,17.784,17.784,17.784,17.784L39.563,39l-2.829-19.798c0,0-17.763-17.762-17.784-17.784
			C17.542,0.009,15.061-0.138,13.653,1.27z M33.905,20.615l2.276,14.695L20.47,34.05c0,0-14.933-14.933-14.955-14.955
			C3.5,17.08,3.5,15.666,5.368,13.798l8.285-8.285c1.868-1.868,3.282-1.868,5.297,0.147C18.972,5.682,33.905,20.615,33.905,20.615z"
			/>
	</g>
	
		<rect x="30.612" y="32.051" transform="matrix(0.7071 -0.7071 0.7071 0.7071 -13.9397 34.4457)" fill-rule="evenodd" clip-rule="evenodd" fill="#FFFFFF" width="8" height="4"/>
	
		<rect x="2.402" y="12.339" transform="matrix(0.7071 -0.7071 0.7071 0.7071 -5.8602 13.5296)" fill-rule="evenodd" clip-rule="evenodd" fill="#FFFFFF" width="22" height="3"/>
</g>
</svg>
