<?xml version="1.0" encoding="utf-8"?>
<!-- Generated by IcoMoon.io -->
<!DOCTYPE svg PUBLIC "-//W3C//DTD SVG 1.1//EN" "http://www.w3.org/Graphics/SVG/1.1/DTD/svg11.dtd">
<svg version="1.1" xmlns="http://www.w3.org/2000/svg" xmlns:xlink="http://www.w3.org/1999/xlink" width="100" height="100" viewBox="0 0 100 100">
<g>
</g>
	<path d="M46.875 6.25c-25.888 0-46.875 20.987-46.875 46.875 0 25.888 20.987 46.875 46.875 46.875 25.888 0 46.875-20.987 46.875-46.875 0-25.888-20.987-46.875-46.875-46.875zM46.875 90.625c-20.711 0-37.5-16.789-37.5-37.5s16.789-37.5 37.5-37.5c20.711 0 37.5 16.789 37.5 37.5 0 20.711-16.789 37.5-37.5 37.5zM50 50v-12.5h12.5v-6.25h-12.5v-6.25h-6.25v6.25h-12.5v25h12.5v12.5h-12.5v6.25h12.5v6.25h6.25v-6.25h12.5l-0-25h-12.5zM43.75 50h-6.25v-12.5h6.25v12.5zM56.25 68.75h-6.25v-12.5h6.25v12.5z" fill="#ffffff" />
</svg>
