<?xml version="1.0" encoding="utf-8"?>
<!-- Generator: Adobe Illustrator 16.0.0, SVG Export Plug-In . SVG Version: 6.00 Build 0)  -->
<!DOCTYPE svg PUBLIC "-//W3C//DTD SVG 1.0//EN" "http://www.w3.org/TR/2001/REC-SVG-20010904/DTD/svg10.dtd">
<svg version="1.0" id="Layer_1" xmlns="http://www.w3.org/2000/svg" xmlns:xlink="http://www.w3.org/1999/xlink" x="0px" y="0px"
	 width="44px" height="44px" viewBox="0 0 44 44" enable-background="new 0 0 44 44" xml:space="preserve">
<rect x="-224.874" y="-103.205" display="none" fill="#45494F" width="1110" height="793.333"/>
<path fill-rule="evenodd" clip-rule="evenodd" fill="#FFFFFF" d="M43.347,40.188l-9.225-9.225
	c6.178-7.416,5.795-18.451-1.164-25.409c-7.372-7.372-19.324-7.372-26.695,0c-7.372,7.372-7.372,19.325,0,26.695
	c6.707,6.707,17.192,7.292,24.583,1.795l9.323,9.323c0.877,0.877,2.3,0.877,3.178,0C44.225,42.489,44.225,41.065,43.347,40.188z
	 M8.487,30.025c-6.143-6.143-6.143-16.103,0-22.247c6.143-6.143,16.103-6.143,22.246,0c6.144,6.144,6.144,16.104,0,22.247
	C24.59,36.168,14.63,36.168,8.487,30.025z"/>
</svg>
