<?xml version="1.0" encoding="utf-8"?>
<!-- Generator: Adobe Illustrator 16.0.0, SVG Export Plug-In . SVG Version: 6.00 Build 0)  -->
<!DOCTYPE svg PUBLIC "-//W3C//DTD SVG 1.0//EN" "http://www.w3.org/TR/2001/REC-SVG-20010904/DTD/svg10.dtd">
<svg version="1.0" id="Layer_1" xmlns="http://www.w3.org/2000/svg" xmlns:xlink="http://www.w3.org/1999/xlink" x="0px" y="0px"
	 width="44px" height="37px" viewBox="0 0 44 37" enable-background="new 0 0 44 37" xml:space="preserve">
<rect x="-321.749" y="-105.222" display="none" fill="#45494F" width="1110" height="793.333"/>
<g>
	<path fill-rule="evenodd" clip-rule="evenodd" fill="#FFFFFF" d="M40.498,8H27.274c0,0-2.453-4.019-3.27-5.439
		c0,0-0.315-0.546-0.785-1.155C22.56,0.551,21.525,0,20.362,0H0.14v37h44c0,0,0-25.119,0-25.15C44.14,9.858,42.489,8,40.498,8z
		 M41.14,34h-38V2.994h15.088c1.163,0,2.198,0.551,2.857,1.405c0.469,0.609,0.785,1.155,0.785,1.155C22.687,6.976,25.14,11,25.14,11
		h12.358c1.991,0,3.642,1.615,3.642,3.606C41.14,14.637,41.14,34,41.14,34z"/>
</g>
<g>
	<path fill-rule="evenodd" clip-rule="evenodd" fill="#FFFFFF" d="M40.498,15H21.187c0,0-2.453-4.019-3.27-5.439
		c0,0-0.315-0.546-0.785-1.155C16.472,7.551,15.438,7,14.274,7H0.14v2.994h12c1.163,0,2.198,0.551,2.857,1.405
		c0.469,0.609,0.785,1.155,0.785,1.155c0.817,1.421,3.27,5.445,3.27,5.445h18.446c1.991,0,3.642,1.615,3.642,3.606
		c0,0.023,0,9.956,0,15.394h3c0-7.433,0-18.129,0-18.15C44.14,16.858,42.489,15,40.498,15z"/>
</g>
</svg>
