<?xml version="1.0" encoding="utf-8"?>
<!-- Generated by IcoMoon.io -->
<!DOCTYPE svg PUBLIC "-//W3C//DTD SVG 1.1//EN" "http://www.w3.org/Graphics/SVG/1.1/DTD/svg11.dtd">
<svg version="1.1" xmlns="http://www.w3.org/2000/svg" xmlns:xlink="http://www.w3.org/1999/xlink" width="100" height="100" viewBox="0 0 100 100">
<g>
</g>
	<path d="M93.105 7.289l-0.393-0.395c-9.194-9.193-24.238-9.193-33.43 0l-21.299 21.302c-9.193 9.193-9.193 24.236 0 33.429l0.393 0.393c0.765 0.766 1.577 1.457 2.416 2.096l7.798-7.798c-0.908-0.537-1.77-1.179-2.55-1.959l-0.395-0.395c-4.992-4.99-4.992-13.112 0-18.104l21.302-21.3c4.992-4.992 13.113-4.992 18.104 0l0.395 0.393c4.99 4.992 4.99 13.114 0 18.104l-9.637 9.637c1.673 4.132 2.466 8.535 2.396 12.928l14.903-14.903c9.193-9.193 9.193-24.236-0-33.429zM61.625 37.982c-0.765-0.765-1.577-1.457-2.416-2.094l-7.798 7.796c0.909 0.537 1.77 1.179 2.55 1.959l0.395 0.395c4.992 4.992 4.992 13.113 0 18.104l-21.302 21.302c-4.992 4.99-13.113 4.99-18.104 0l-0.395-0.395c-4.99-4.992-4.99-13.113 0-18.104l9.637-9.637c-1.673-4.131-2.465-8.535-2.396-12.928l-14.903 14.902c-9.193 9.193-9.193 24.236 0 33.43l0.393 0.394c9.195 9.192 24.237 9.192 33.43 0l21.3-21.301c9.193-9.193 9.193-24.238 0-33.43l-0.393-0.393z" fill="#ffffff" />
</svg>
