<?xml version="1.0" encoding="utf-8"?>
<!-- Generator: Adobe Illustrator 16.0.0, SVG Export Plug-In . SVG Version: 6.00 Build 0)  -->
<!DOCTYPE svg PUBLIC "-//W3C//DTD SVG 1.0//EN" "http://www.w3.org/TR/2001/REC-SVG-20010904/DTD/svg10.dtd">
<svg version="1.0" id="Layer_1" xmlns="http://www.w3.org/2000/svg" xmlns:xlink="http://www.w3.org/1999/xlink" x="0px" y="0px"
	 width="47.057px" height="45.167px" viewBox="0 0 47.057 45.167" enable-background="new 0 0 47.057 45.167" xml:space="preserve">
<rect x="-614.916" y="-105.056" display="none" fill="#45494F" width="1110" height="793.333"/>
<path fill="#FFFFFF" d="M41.973,25.167h-40c-1.104,0-2-0.896-2-2s0.896-2,2-2h40c1.104,0,2,0.896,2,2S43.077,25.167,41.973,25.167z"
	/>
<path fill="#FFFFFF" d="M42.973,25.667c-0.768,0-1.535-0.293-2.121-0.879l-19.5-19.5c-1.172-1.171-1.172-3.071,0-4.242
	c1.172-1.172,3.07-1.172,4.242,0l19.5,19.5c1.172,1.171,1.172,3.071,0,4.242C44.508,25.374,43.74,25.667,42.973,25.667z"/>
<path fill="#FFFFFF" d="M23.473,45.167c-0.768,0-1.535-0.293-2.121-0.879c-1.172-1.171-1.172-3.071,0-4.242l19.5-19.5
	c1.172-1.172,3.07-1.172,4.242,0c1.172,1.171,1.172,3.071,0,4.242l-19.5,19.5C25.008,44.874,24.24,45.167,23.473,45.167z"/>
</svg>
