<?xml version="1.0" encoding="utf-8"?>
<!-- Generator: Adobe Illustrator 15.0.0, SVG Export Plug-In . SVG Version: 6.00 Build 0)  -->
<!DOCTYPE svg PUBLIC "-//W3C//DTD SVG 1.1//EN" "http://www.w3.org/Graphics/SVG/1.1/DTD/svg11.dtd">
<svg version="1.1" id="Layer_1" xmlns="http://www.w3.org/2000/svg" xmlns:xlink="http://www.w3.org/1999/xlink" x="0px" y="0px"
	 width="800px" height="125.057px" viewBox="0 0 800 125.057" enable-background="new 0 0 800 125.057" xml:space="preserve">
<g>
	<g id="XMLID_9_">
		<g>
			<path fill="#1F6868" d="M97.564,16.525c0,82.17-0.034,94.659,0,97.92c0,0.183,0.007,0.899,0,1.488
				c-0.006,0.439-0.054,1.252-0.108,1.65c-0.115,0.766-0.291,1.529-0.433,1.895c-0.169,0.42-0.353,0.859-0.758,1.509
				c-1.36,2.151-3.883,4.147-7.834,4.147H29.35c-0.934,0-1.691-0.759-1.691-1.691c0-0.934,0.758-1.691,1.691-1.691
				c4.688,0,5.751-4.073,5.751-4.823V16.525c0-0.961-1.381-4.377-5.751-4.377c-0.934,0-1.691-0.757-1.691-1.691
				c0-0.934,0.758-1.691,1.691-1.691h59.081C94.885,8.765,97.564,13.818,97.564,16.525z M94.181,116.929V16.525
				c0-0.961-1.379-4.377-5.75-4.377H36.778c1.164,1.488,1.705,3.166,1.705,4.377v100.404c0,1.332-0.581,3.206-1.854,4.823h51.801
				C93.119,121.752,94.181,117.679,94.181,116.929z"/>
			<path fill="#1F6868" d="M94.181,16.525v100.404c0,0.75-1.062,4.823-5.75,4.823H36.629c1.273-1.617,1.854-3.491,1.854-4.823
				V16.525c0-1.212-0.542-2.889-1.705-4.377h51.653C92.802,12.148,94.181,15.564,94.181,16.525z"/>
		</g>
		<g>
		</g>
	</g>
	<g>
		<rect x="8.697" y="15.195" fill="#A8A8A7" width="93.215" height="93.216"/>
	</g>
	<g>
		<rect x="4.348" y="20.062" fill="#C6C6C6" width="93.216" height="93.216"/>
	</g>
	<g>
		<rect y="24.929" fill="#EDEDED" width="93.216" height="93.216"/>
	</g>
	<g id="XMLID_8_">
		<g>
			<path fill="#1F6868" d="M18.073,21.078c0,0,0.006-0.981-0.007-1.677c-0.021-0.934,0.021-1.678,0.041-2.889
				c0.013-0.738,0.257-1.915,0.567-2.564c0.183-0.393,0.325-0.67,0.663-1.184c1.367-2.097,3.904-3.999,7.868-3.999h58.743
				c0.934,0,1.691,0.758,1.691,1.691c0,0.934-0.757,1.691-1.691,1.691c-1.731,0-2.767,0.494-3.694,1.157
				c-0.453,0.332-0.968,0.927-1.306,1.475c-0.561,0.907-0.723,1.908-0.75,3.193c-0.013,0.433-0.006,1.604,0,1.949v0.006
				c0,0.062,0,0.088,0,0.088v44.963c0,0.933-0.758,1.691-1.691,1.691H19.764c-0.934,0-1.691-0.758-1.691-1.691V21.078z
				 M78.526,12.148H27.205c-4.371,0-5.751,3.417-5.751,4.377v46.761h55.361V18.832v-1.496c0-0.352,0.007-1.21,0.136-1.928
				c0.081-0.46,0.183-0.866,0.337-1.231C77.559,13.528,77.938,12.898,78.526,12.148z"/>
			<path fill="#37949B" d="M27.205,12.148h51.321c-0.588,0.75-0.967,1.38-1.238,2.029c-0.155,0.365-0.257,0.771-0.337,1.231
				c-0.128,0.717-0.136,1.576-0.136,1.928v1.496v44.455H21.454V16.525C21.454,15.564,22.834,12.148,27.205,12.148z"/>
		</g>
		<g>
		</g>
	</g>
	<g id="XMLID_7_">
		<g>
			<path fill="#1F6868" d="M10.576,116.834c-0.203-0.92-0.284-2.599-0.284-3.383c0-0.636,0-4.397,0-4.397V48.951
				c0-2.334-0.345-6.257,1.171-9.356c1.184-2.462,4.783-9.728,9.951-18.382c8.524-14.288,15.1-21.236,20.113-21.236
				c5.054,0,11.629,6.948,20.161,21.236c6.062,10.155,10.141,18.835,10.195,18.936c0.832,1.752,0.92,3.539,0.92,5.277v64.697
				c0,0.277,0.027,2.314,0.128,4.16c0.082,1.414,0.278,2.375,0.596,3.193c0.338,0.874,1.21,2.098,1.603,2.51
				c0.4,0.419,1.456,1.684,3.424,1.766h1.082c0.934,0,1.691,0.758,1.691,1.691c0,0.933-0.757,1.691-1.691,1.691h-60.21
				c-2.185,0-3.897-0.846-5.257-1.969c-1.136-0.94-1.989-2.273-2.652-3.531C11.199,119.026,10.806,117.91,10.576,116.834z
				 M21.062,121.752h50.916c-0.805-1.049-1.353-2.226-1.739-3.187c-0.202-0.514-0.419-1.272-0.533-1.78
				c-0.088-0.406-0.21-1.42-0.237-1.806c-0.081-1.15-0.047-3.518-0.047-4.018V45.779c-1.854,1.21-4.621,2.401-8.321,2.401
				c-4.885,0-8.138-2.077-9.823-3.524c-1.677,1.447-4.938,3.524-9.824,3.524c-4.884,0-8.145-2.077-9.823-3.524
				c-1.677,1.447-4.938,3.524-9.823,3.524c-3.579,0-6.278-1.116-8.131-2.28v65.062c0,0,0,0.602,0,1.508
				c0,0.906,0.081,2.043,0.155,2.672c0.101,0.852,0.284,2.063,0.588,2.747c0.189,0.433,0.649,1.15,0.947,1.549
				c0.358,0.487,0.919,1.022,1.468,1.415c0.318,0.236,0.935,0.534,1.272,0.642c0.555,0.169,1.292,0.257,1.826,0.257H21.062z
				 M61.1,44.797c4.161,0,6.603-2.192,7.706-3.22c-2.132-4.465-4.621-9.249-7.449-14.241c-1.333,1.387-3.484,2.916-6.501,2.916
				c-3.139,0-5.338-1.644-6.65-3.079c-1.318,1.435-3.518,3.079-6.657,3.079c-3.132,0-5.332-1.644-6.65-3.079
				c-1.312,1.435-3.511,3.079-6.65,3.079c-3.023,0-5.168-1.529-6.501-2.922c-2.862,5.046-5.513,10.188-7.665,14.673
				c1.177,1.056,3.721,2.794,7.726,2.794c5.689,0,8.45-3.525,8.477-3.565c0.325-0.419,0.819-0.663,1.346-0.663
				c0.528,0,1.022,0.243,1.347,0.663c0.108,0.135,2.862,3.565,8.477,3.565c5.69,0,8.451-3.525,8.477-3.565
				c0.325-0.419,0.819-0.663,1.347-0.663s1.028,0.243,1.346,0.663C52.731,41.367,55.484,44.797,61.1,44.797z M54.855,26.869
				c2.422,0,3.999-1.67,4.709-2.638C53.035,13.142,45.857,3.36,41.575,3.36c-4.316,0-11.508,9.782-18.036,20.871
				c0.711,0.968,2.28,2.638,4.708,2.638c3.349,0,5.082-3.187,5.155-3.321c0.291-0.555,0.879-0.914,1.502-0.9
				c0.629,0,1.211,0.353,1.496,0.907c0.067,0.128,1.799,3.314,5.148,3.314c3.355,0,5.081-3.187,5.155-3.321
				c0.297-0.555,0.845-0.914,1.508-0.9c0.629,0,1.205,0.353,1.495,0.907C49.774,23.682,51.506,26.869,54.855,26.869z"/>
			<path fill="#79BFC7" d="M71.978,121.752H21.062h-1.129c-0.534,0-1.271-0.088-1.826-0.257c-0.338-0.108-0.954-0.406-1.272-0.642
				c-0.548-0.393-1.109-0.927-1.468-1.415c-0.298-0.399-0.758-1.116-0.947-1.549c-0.305-0.683-0.487-1.895-0.588-2.747
				c-0.074-0.629-0.155-1.767-0.155-2.672c0-0.906,0-1.508,0-1.508V45.9c1.853,1.164,4.552,2.28,8.131,2.28
				c4.884,0,8.146-2.077,9.823-3.524c1.678,1.447,4.939,3.524,9.823,3.524c4.885,0,8.146-2.077,9.824-3.524
				c1.685,1.447,4.938,3.524,9.823,3.524c3.701,0,6.468-1.19,8.321-2.401v65.184c0,0.5-0.034,2.868,0.047,4.018
				c0.027,0.386,0.149,1.4,0.237,1.806c0.114,0.507,0.331,1.266,0.533,1.78C70.625,119.526,71.173,120.704,71.978,121.752z"/>
			<path fill="#EFD1B1" d="M68.806,41.577c-1.104,1.028-3.545,3.22-7.706,3.22c-5.615,0-8.369-3.431-8.478-3.565
				c-0.317-0.419-0.818-0.663-1.346-0.663s-1.021,0.243-1.347,0.663c-0.026,0.041-2.787,3.565-8.477,3.565
				c-5.615,0-8.368-3.431-8.477-3.565c-0.325-0.419-0.819-0.663-1.347-0.663c-0.527,0-1.021,0.243-1.346,0.663
				c-0.027,0.041-2.787,3.565-8.477,3.565c-4.004,0-6.549-1.739-7.726-2.794c2.151-4.485,4.803-9.627,7.665-14.673
				c1.333,1.393,3.478,2.922,6.501,2.922c3.139,0,5.338-1.644,6.65-3.079c1.319,1.435,3.518,3.079,6.65,3.079
				c3.139,0,5.338-1.644,6.657-3.079c1.312,1.435,3.511,3.079,6.65,3.079c3.017,0,5.169-1.529,6.501-2.916
				C64.185,32.329,66.674,37.112,68.806,41.577z"/>
			<path fill="#79BFC7" d="M59.564,24.23c-0.711,0.968-2.287,2.638-4.709,2.638c-3.349,0-5.081-3.187-5.148-3.314
				c-0.291-0.554-0.866-0.907-1.495-0.907c-0.663-0.014-1.211,0.345-1.508,0.9c-0.075,0.135-1.8,3.321-5.155,3.321
				c-3.349,0-5.081-3.187-5.148-3.314c-0.285-0.554-0.867-0.907-1.496-0.907c-0.623-0.014-1.211,0.345-1.502,0.9
				c-0.074,0.135-1.807,3.321-5.155,3.321c-2.429,0-3.998-1.67-4.708-2.638C30.067,13.142,37.259,3.36,41.575,3.36
				C45.857,3.36,53.035,13.142,59.564,24.23z"/>
		</g>
		<g>
		</g>
	</g>
	<g>
		<g>
			<path fill="#1F6868" d="M59.937,64.171H23.25c-0.915,0-1.656-0.756-1.656-1.691c0-0.934,0.741-1.691,1.656-1.691h36.688
				c0.915,0,1.656,0.757,1.656,1.691C61.593,63.415,60.852,64.171,59.937,64.171z"/>
		</g>
	</g>
	<g>
		<g>
			<path fill="#1F6868" d="M59.937,76.087H23.25c-0.915,0-1.656-0.758-1.656-1.692c0-0.934,0.741-1.69,1.656-1.69h36.688
				c0.915,0,1.656,0.757,1.656,1.69C61.593,75.33,60.852,76.087,59.937,76.087z"/>
		</g>
	</g>
	<g>
		<g>
			<path fill="#1F6868" d="M59.937,88.003H23.25c-0.915,0-1.656-0.757-1.656-1.691c0-0.935,0.741-1.692,1.656-1.692h36.688
				c0.915,0,1.656,0.757,1.656,1.692C61.593,87.246,60.852,88.003,59.937,88.003z"/>
		</g>
	</g>
	<g>
		<g>
			<path fill="#1F6868" d="M59.937,99.919H23.25c-0.915,0-1.656-0.758-1.656-1.692c0-0.934,0.741-1.69,1.656-1.69h36.688
				c0.915,0,1.656,0.757,1.656,1.69C61.593,99.162,60.852,99.919,59.937,99.919z"/>
		</g>
	</g>
</g>
<g>
	<g>
		<g id="XMLID_15_">
			<path fill="#37949B" d="M741.798,119.497c-0.042-0.65-0.195-1.271-0.447-1.839c-0.055-0.126-0.114-0.253-0.18-0.375
				c-0.082-0.152-0.174-0.303-0.271-0.444c-0.011-0.014-0.018-0.026-0.028-0.04c-0.045-0.067-0.113-0.15-0.161-0.215
				c-0.038-0.047-0.16-0.165-0.184-0.181c-0.002-0.006-0.007-0.006-0.007-0.006l-27.842-27.844
				c-0.186-0.152-0.416-0.248-0.675-0.248c-0.061,0-0.124,0.008-0.185,0.018c-0.155,0.028-0.3,0.09-0.425,0.178
				c-0.27,0.192-0.444,0.505-0.444,0.862c0,0-0.003,8.91,0,8.934c0.017,0.234,0.105,0.448,0.253,0.617l17.921,17.924h-26.458
				c-0.1,0-0.199-0.016-0.297-0.032c-0.726-0.125-1.299-0.696-1.426-1.422c-0.007-0.055-0.013-0.111-0.016-0.169v-0.265V18.646
				c0.011-0.006,0.021-0.014,0.032-0.021c0.126-0.722,0.692-1.291,1.415-1.42c0.071-0.01,29.379-0.02,29.379-0.02
				c0.063,0.001,0.128,0.007,0.188,0.018c0.74,0.117,1.325,0.7,1.444,1.443c0.004,0.007,0.005,37.501,0.005,37.501
				c0,0.581,0.471,1.051,1.054,1.055h0.002c0.003,0,0.003,0,0.005,0h6.249h0.003c0.002,0,0.003,0,0.003,0
				c0.583-0.004,1.055-0.475,1.055-1.055v-41.96c0-0.761-0.162-1.486-0.445-2.139c-0.543-1.247-1.542-2.245-2.791-2.789
				c-0.654-0.287-1.377-0.445-2.14-0.445h-38.452c-0.007,0-0.013,0-0.016,0c-0.757,0.002-1.474,0.161-2.125,0.445c0,0,0,0-0.002,0
				c-1.246,0.544-2.243,1.542-2.785,2.789c-0.285,0.653-0.446,1.378-0.446,2.139v105.646c0,0.407,0.05,0.8,0.136,1.177
				c0.073,0.335,0.179,0.657,0.311,0.962c0.04,0.096,0.087,0.186,0.133,0.279c0.564,1.115,1.502,2.009,2.654,2.508
				c0.656,0.287,1.378,0.445,2.141,0.445h38.507c0.761,0,1.486-0.158,2.141-0.445c1.232-0.535,2.226-1.523,2.771-2.751
				c0.252-0.568,0.405-1.187,0.447-1.839c0.007-0.111,0.015-0.222,0.015-0.336C741.812,119.719,741.805,119.61,741.798,119.497z"/>
			<g>
			</g>
		</g>
	</g>
	<g>
		<g id="XMLID_14_">
			<g>
				<path fill="#37949B" d="M283.802,8.759h-6.399c-0.156,0-0.303,0.032-0.435,0.096c-0.171,0.077-0.315,0.196-0.424,0.348
					c-0.033,0.046-0.067,0.108-0.104,0.191c-0.036,0.078-0.036,0.108-0.062,0.254c-0.025,0.144-15.747,90.705-15.747,90.705
					L244.965,9.834l-0.066-0.389c-0.031-0.086-0.075-0.167-0.127-0.243c-0.108-0.152-0.256-0.274-0.43-0.352
					c-0.131-0.061-0.275-0.092-0.431-0.092h-6.393c-0.575,0-1.038,0.457-1.052,1.026l0.069,0.411l19.751,114.14
					c0.025,0.111,0.072,0.217,0.129,0.313c0.109,0.178,0.269,0.321,0.461,0.408c0.133,0.063,0.281,0.099,0.439,0.099h6.64
					c0.155,0,0.3-0.034,0.432-0.092c0.158-0.073,0.294-0.184,0.401-0.319c0.057-0.072,0.085-0.146,0.115-0.25
					c0.053-0.173,0.103-0.435,0.103-0.435L284.58,11.326c0,0,0.144-0.82,0.235-1.336c0.013-0.083,0.039-0.168,0.039-0.238
					C284.854,9.203,284.364,8.759,283.802,8.759z"/>
				<polygon fill="#8C8C8C" points="236.322,8.759 236.286,8.764 236.286,8.759 				"/>
			</g>
			<g>
			</g>
		</g>
	</g>
	<g>
	</g>
	<path fill="#37949B" d="M171.181,16.065V9.809c0-0.583-0.489-1.049-1.073-1.049l-42.792-0.005c-0.761,0-1.482,0.157-2.139,0.444
		c-0.75,0.326-1.412,0.82-1.938,1.434c-0.162,0.188-0.31,0.389-0.444,0.6c-0.539,0.835-0.852,1.828-0.852,2.894
		s0.313,2.059,0.852,2.894c0.002,0.006,24.9,38.773,34.402,53.569c0.748,1.165,1.378,2.196,1.937,3.018
		c0.703,1.037,1.58,2.641,1.873,3.287c1.132,2.517,1.768,5.301,1.768,8.235v31.082c-0.015,0.282-0.222,0.514-0.49,0.566h-38.44
		h-0.031c-0.585,0-1.058,0.473-1.058,1.055v6.256c0,0.583,0.47,1.053,1.053,1.056c0.002,0,0.002,0.002,0.005,0.002
		c0,0,0.002-0.002,0.005-0.002h0.026h41.926c0.764,0,1.484-0.158,2.142-0.445c1.244-0.541,2.245-1.542,2.786-2.788
		c0.287-0.654,0.447-1.377,0.447-2.14V82.666c-0.003-0.346-0.014-0.692-0.034-1.033c-0.06-1.061-0.199-2.098-0.414-3.109
		c-0.208-0.983-0.485-1.94-0.826-2.864c-0.359-0.969-0.789-1.9-1.282-2.795c-0.044-0.08-0.091-0.157-0.138-0.236
		c-0.362-0.636-0.758-1.251-1.182-1.843l-33.309-51.826l-1.182-1.836h37.346C170.708,17.123,171.181,16.649,171.181,16.065z"/>
	<g>
		<g id="XMLID_11_">
			<path fill="#79BFC7" d="M452.715,11.999c-0.544-1.246-1.546-2.245-2.788-2.788c-0.658-0.286-1.382-0.445-2.143-0.445h-38.455
				h-0.017c-0.754,0.003-1.47,0.16-2.121,0.445c0,0,0,0-0.002,0c-1.245,0.543-2.243,1.542-2.786,2.788
				c-0.286,0.654-0.446,1.378-0.446,2.139v105.646c0,0.761,0.16,1.485,0.446,2.139c0.113,0.264,0.251,0.516,0.405,0.756
				c0.136,0.209,0.283,0.408,0.446,0.6c0.46,0.535,1.023,0.978,1.659,1.3c0.093,0.047,0.184,0.091,0.277,0.133
				c0.308,0.135,0.63,0.237,0.964,0.312c0.378,0.086,0.771,0.132,1.174,0.132h38.459c0.403,0,0.797-0.046,1.176-0.132
				c0.331-0.075,0.656-0.178,0.963-0.312c0.092-0.042,0.183-0.086,0.278-0.133c1.112-0.563,2.008-1.502,2.51-2.656
				c0.011-0.027,0.022-0.053,0.036-0.083c0.26-0.633,0.409-1.327,0.409-2.056V14.138C453.16,13.377,452.998,12.653,452.715,11.999z
				 M444.79,18.667v96.602c-0.002,0.021-0.005,0.042-0.006,0.062c-0.12,0.744-0.706,1.333-1.452,1.451
				c-0.023,0.004-0.048,0.006-0.07,0.008c0,0-29.453-0.004-29.477-0.011c-0.748-0.116-1.333-0.704-1.451-1.448
				c-0.003-0.023-0.003-0.049-0.006-0.073V18.664c0.003-0.023,0.003-0.046,0.006-0.073c0.118-0.745,0.703-1.329,1.451-1.449
				c0.023-0.005,0.049-0.005,0.07-0.007h29.398c0.025,0.002,0.051,0.002,0.078,0.007c0.744,0.12,1.332,0.704,1.452,1.449
				C444.785,18.618,444.788,18.644,444.79,18.667z"/>
			<g>
			</g>
		</g>
	</g>
	<g>
		<g id="XMLID_6_">
			<path fill="#79BFC7" d="M396.608,9.346c-0.024-0.047-0.05-0.094-0.08-0.135c-0.014-0.021-0.029-0.036-0.045-0.054
				c-0.033-0.041-0.067-0.08-0.105-0.114c-0.188-0.17-0.435-0.276-0.708-0.276h-6.494c-0.127,0-0.247,0.025-0.36,0.067
				c-0.204,0.072-0.362,0.186-0.483,0.357c-0.055,0.077-0.106,0.152-0.159,0.31c-0.077,0.238-15.66,56.714-15.66,56.714
				S356.878,9.539,356.84,9.431c-0.044-0.121-0.074-0.171-0.108-0.22c-0.158-0.222-0.402-0.375-0.684-0.424
				c-0.021-0.005-0.044-0.005-0.067-0.008c-0.036-0.006-0.07-0.013-0.11-0.013h-0.02h-6.199h-0.291h-0.034
				c-0.278,0-0.532,0.111-0.721,0.287c-0.026,0.026-0.048,0.049-0.069,0.078c-0.023,0.026-0.047,0.052-0.067,0.08
				c-0.019,0.026-0.034,0.054-0.05,0.08c-0.093,0.158-0.147,0.313-0.147,0.507c0.002,0.052,0.024,0.169,0.047,0.26
				c0.039,0.131,20.069,72.671,20.069,72.671v41.373c0,0.582,0.473,1.055,1.056,1.055h6.257c0.583,0,1.058-0.473,1.058-1.055V82.287
				l19.929-72.202l0.018-0.059c0.014-0.067,0.021-0.135,0.021-0.204C396.728,9.651,396.683,9.49,396.608,9.346z"/>
			<g>
			</g>
		</g>
	</g>
	<g>
	</g>
	<path fill="#79BFC7" d="M511.006,9.109c-0.191-0.192-0.456-0.311-0.748-0.311h-6.255c-0.582,0-1.056,0.474-1.056,1.055v105.344
		c-0.061,0.877-0.765,1.575-1.648,1.625h-29.055h-0.05c-0.896-0.015-1.623-0.704-1.71-1.581V9.854c0-0.582-0.473-1.055-1.059-1.055
		h-6.252c-0.586,0-1.059,0.474-1.059,1.055v109.962c0,0.761,0.16,1.485,0.446,2.141c0.114,0.262,0.251,0.514,0.403,0.755
		c0.135,0.208,0.283,0.408,0.447,0.6c0.46,0.535,1.024,0.976,1.658,1.3c0.095,0.047,0.185,0.09,0.277,0.132
		c0.309,0.135,0.632,0.238,0.964,0.313c0.379,0.085,0.771,0.132,1.177,0.132h38.452c0.407,0,0.801-0.047,1.18-0.132
		c0.331-0.075,0.656-0.178,0.963-0.313c0.095-0.042,0.183-0.085,0.278-0.132c1.112-0.564,2.01-1.503,2.511-2.655
		c0.01-0.03,0.023-0.055,0.035-0.084c0.261-0.633,0.409-1.326,0.409-2.056V9.854C511.316,9.561,511.197,9.298,511.006,9.109z"/>
	<g>
		<g id="XMLID_3_">
			<path fill="#79BFC7" d="M569.057,11.999c-0.541-1.246-1.543-2.245-2.789-2.788c-0.654-0.286-1.378-0.445-2.139-0.445h-38.455
				c-0.005,0-0.014,0-0.019,0c-0.751,0.003-1.471,0.16-2.12,0.445h-0.003c-1.244,0.543-2.243,1.542-2.785,2.788
				c-0.285,0.654-0.445,1.378-0.445,2.139v109.963c0,0.582,0.472,1.055,1.056,1.055h6.257c0.585,0,1.058-0.473,1.058-1.055v-3.472
				l14.009-21.802l16.635,25.884h0.007c0.18,0.256,0.471,0.424,0.808,0.442l0.001,0.002h0.05h7.446c0.353,0,0.668-0.176,0.859-0.444
				c0.045-0.064,0.086-0.133,0.114-0.204c0.054-0.127,0.084-0.264,0.084-0.406c0-0.17-0.045-0.332-0.119-0.474
				c-0.031-0.066-0.07-0.127-0.114-0.181l-20.796-32.358l18.118-28.195l0.955-1.482c0.586-1.002,1.091-2.061,1.503-3.162
				c0.338-0.914,0.616-1.856,0.825-2.827c0.243-1.118,0.393-2.269,0.444-3.445v-37.84C569.501,13.377,569.34,12.653,569.057,11.999z
				 M528.672,18.885c0-0.964,0.786-1.75,1.751-1.75h28.958c0.966,0,1.751,0.786,1.751,1.75v29.896c0,3.683-0.997,7.135-2.73,10.107
				l-0.947,1.471l-1.919,2.987l-26.863,41.805V18.885z"/>
			<g>
			</g>
		</g>
	</g>
	<g>
		<g id="XMLID_1_">
			<path fill="#37949B" d="M627.262,11.999c-0.543-1.246-1.54-2.245-2.789-2.788c-0.651-0.286-1.377-0.445-2.139-0.445h-38.455
				c-0.004,0-0.013,0-0.019,0c-0.752,0.003-1.471,0.16-2.119,0.445c-0.002,0-0.002,0-0.002,0c-1.244,0.543-2.244,1.542-2.787,2.788
				c-0.286,0.654-0.447,1.378-0.447,2.139v109.963c0,0.582,0.474,1.055,1.059,1.055h6.256c0.584,0,1.057-0.473,1.057-1.055v-3.472
				l36.885-57.391c0.476-0.652,0.912-1.335,1.312-2.041c0.529-0.944,0.99-1.928,1.369-2.958c0.338-0.92,0.613-1.872,0.82-2.85
				c0.29-1.379,0.444-2.802,0.444-4.267V14.138C627.706,13.377,627.546,12.653,627.262,11.999z M586.876,105.152V18.885
				c0-0.964,0.784-1.75,1.753-1.75h28.958c0.965,0,1.75,0.786,1.75,1.75v31.277c-0.206,2.965-1.056,5.757-2.413,8.231
				L586.876,105.152z"/>
			<g>
			</g>
		</g>
	</g>
	<g>
		<g id="XMLID_2_">
			<g>
				<path fill="#37949B" d="M228.845,11.244c-0.135-0.209-0.282-0.411-0.445-0.6c-0.525-0.613-1.188-1.106-1.938-1.433
					c-0.654-0.286-1.378-0.445-2.138-0.445h-42.81c-0.584,0-1.057,0.474-1.057,1.056v6.255c0,0.584,0.473,1.058,1.057,1.058h36.232
					c0.337,0,0.61,0.274,0.61,0.61c0,0.099-0.025,0.191-0.067,0.274l-34.597,53.833l-0.307,0.526
					c-0.088,0.149-0.176,0.301-0.264,0.454l-0.064,0.112c0,0-0.003,0.01-0.005,0.015c-0.117,0.212-0.233,0.428-0.341,0.644
					c-0.117,0.228-0.229,0.458-0.337,0.688c-0.183,0.404-0.356,0.812-0.517,1.226c-0.003,0.01-0.008,0.024-0.011,0.034
					c-0.155,0.401-0.3,0.805-0.427,1.218c-0.188,0.605-0.346,1.223-0.478,1.85c-0.087,0.413-0.164,0.83-0.225,1.254
					c-0.145,0.982-0.222,1.988-0.222,3.013v33.904v2.994c0,0.761,0.16,1.485,0.447,2.139c0.541,1.247,1.541,2.248,2.788,2.789
					c0.654,0.287,1.378,0.444,2.139,0.444h2.995h13.968c1.464,0,2.89-0.152,4.268-0.444c3.941-0.83,7.466-2.789,10.224-5.525
					c0.745-0.736,1.435-1.534,2.058-2.378c0.538-0.725,1.024-1.482,1.464-2.276l0.481-0.748v10.317c0,0.584,0.472,1.055,1.057,1.055
					h6.256c0.582,0,1.055-0.47,1.055-1.055c0,0,0-109.86,0-109.963C229.695,13.073,229.383,12.079,228.845,11.244z M213.607,109.954
					c-3.675,4.157-9.034,6.79-15,6.815c-0.01,0-7.963-0.019-8.284,0.01c-0.745-0.116-1.332-0.704-1.451-1.448
					c-0.07-0.507-0.007-30.189-0.007-30.189c0-3.681,0.998-7.131,2.73-10.104l0.95-1.478l1.918-2.986l26.864-41.8v68.175
					c-0.016,0.907-0.277,1.753-0.722,2.477l-0.163,0.256c0,0-4.681,7.304-5.261,8.16
					C214.696,108.559,214.013,109.494,213.607,109.954z M211.486,114.42c0.006,0,0.007,0,0.01,0.003l-0.004,0.011
					c-0.006,0-0.008,0-0.01,0C211.483,114.429,211.483,114.426,211.486,114.42z"/>
			</g>
			<g>
			</g>
		</g>
	</g>
	<g>
		<g id="XMLID_10_">
			<g>
				<path fill="#37949B" d="M675.328,125.155c0.004,0,0.008,0,0.012,0l0.006-0.011c-0.004,0-0.006,0-0.012,0
					C675.333,125.148,675.33,125.152,675.328,125.155z"/>
				<path fill="#37949B" d="M683.319,11.244c-0.136-0.209-0.283-0.411-0.448-0.6c-0.523-0.613-1.184-1.106-1.936-1.433
					c-0.653-0.286-1.378-0.445-2.14-0.445h-42.808c-0.585,0-1.058,0.474-1.058,1.056v6.255c0,0.584,0.473,1.058,1.058,1.058h36.232
					c0.335,0,0.61,0.274,0.61,0.61c0,0.099-0.025,0.191-0.067,0.274l-34.597,53.833l-0.306,0.526
					c-0.092,0.149-0.18,0.301-0.267,0.454l-0.064,0.112c0,0-0.002,0.01-0.002,0.015c-0.118,0.212-0.233,0.428-0.346,0.644
					c-0.116,0.228-0.227,0.458-0.335,0.688c-0.184,0.404-0.357,0.812-0.515,1.226c-0.006,0.01-0.011,0.024-0.013,0.034
					c-0.152,0.401-0.303,0.805-0.428,1.218c-0.189,0.605-0.347,1.223-0.477,1.85c-0.089,0.413-0.163,0.83-0.227,1.254
					c-0.141,0.982-0.22,1.988-0.22,3.013v33.904v2.994c0,0.761,0.16,1.485,0.446,2.139c0.54,1.247,1.54,2.248,2.787,2.789
					c0.654,0.287,1.377,0.444,2.138,0.444h2.998h13.969c1.46,0,2.89-0.152,4.265-0.444c3.94-0.83,7.466-2.789,10.226-5.525
					c0.747-0.736,1.433-1.534,2.059-2.378c0.537-0.725,1.023-1.482,1.461-2.276l0.484-0.748v10.317c0,0.584,0.472,1.055,1.056,1.055
					h6.256c0.584,0,1.059-0.47,1.059-1.055c0,0,0-109.86,0-109.963C684.172,13.073,683.854,12.079,683.319,11.244z M668.079,109.954
					c-3.675,4.157-9.034,6.79-14.997,6.815c-0.011,0-7.968-0.019-8.286,0.01c-0.747-0.116-1.329-0.704-1.45-1.448
					c-0.071-0.507-0.007-30.189-0.007-30.189c0-3.681,0.997-7.131,2.729-10.104l0.95-1.478l1.92-2.986l26.863-41.8v68.175
					c-0.016,0.907-0.28,1.753-0.723,2.477l-0.164,0.256c0,0-4.682,7.304-5.26,8.16C669.17,108.559,668.485,109.494,668.079,109.954z
					"/>
			</g>
			<g>
			</g>
		</g>
	</g>
	<g>
	</g>
	<path fill="#37949B" d="M340.386,116.79H305.01h-0.08h-0.781c-0.336,0-0.61-0.274-0.61-0.613c0-0.083,0.011-0.173,0.077-0.29
		c0.073-0.129,0.608-0.936,0.608-0.936l33.651-52.363l0.553-0.861c0.411-0.677,0.781-1.382,1.116-2.11
		c0.185-0.405,0.358-0.819,0.52-1.239c0.004-0.014,0.011-0.025,0.015-0.039c0.147-0.39,0.287-0.787,0.412-1.186
		c0.062-0.205,0.116-0.409,0.173-0.617c0.105-0.385,0.203-0.775,0.289-1.168c0.003,0.063,0.008,0.122,0.008,0.184v-0.225
		c0.089-0.418,0.164-0.841,0.228-1.27c0.142-0.977,0.219-1.978,0.219-2.998V14.138c0-0.761-0.159-1.484-0.447-2.139
		c-0.54-1.246-1.542-2.245-2.788-2.788c-0.654-0.286-1.378-0.445-2.139-0.445h-38.454c-0.006,0-0.011,0-0.018,0
		c-0.753,0.003-1.473,0.16-2.122,0.445h-0.001c-1.245,0.543-2.245,1.542-2.786,2.788c-0.285,0.654-0.446,1.378-0.446,2.139
		c0,0,0,105.544,0,105.646c0,1.068,0.313,2.059,0.851,2.895c0.136,0.209,0.282,0.411,0.446,0.6c0.524,0.613,1.184,1.106,1.936,1.433
		c0.655,0.287,1.378,0.444,2.14,0.444h42.807c0.584,0,1.058-0.47,1.058-1.055v-6.256C341.443,117.26,340.97,116.79,340.386,116.79z
		 M330.801,57.923c-0.313,0.603-1.056,1.836-1.056,1.836l-29.171,45.393V18.667c0.005-0.026,0.005-0.048,0.01-0.075
		c0.119-0.745,0.703-1.329,1.448-1.449c0.026-0.005,0.051-0.005,0.077-0.007h28.731c0,0,0.662,0.014,0.755,0.028
		c0.732,0.125,1.307,0.699,1.433,1.428c0.006,0.031,0.006,0.062,0.012,0.093v30.052c0,0.305-0.012,0.61-0.023,0.916
		c-0.006,0.098-0.04,0.59-0.066,0.921c-0.011,0.107-0.046,0.574-0.132,1.122c-0.025,0.158-0.05,0.313-0.08,0.468
		c-0.018,0.119-0.04,0.235-0.062,0.352c-0.036,0.186-0.139,0.665-0.152,0.719c-0.081,0.352-0.173,0.701-0.272,1.048
		c-0.016,0.048-0.031,0.098-0.043,0.147c-0.003,0.003-0.003,0.004-0.006,0.007c-0.09,0.311-0.188,0.616-0.295,0.918
		c-0.003,0.003-0.003,0.008-0.003,0.011c-0.013,0.031-0.022,0.061-0.032,0.092c-0.247,0.691-0.529,1.362-0.845,2.017
		C330.954,57.629,330.876,57.776,330.801,57.923z"/>
	<g>
		<g id="XMLID_12_">
			<path fill="#37949B" d="M798.944,116.79h-35.377h-0.08h-0.781c-0.337,0-0.61-0.274-0.61-0.613c0-0.083,0.012-0.173,0.077-0.29
				c0.072-0.129,0.608-0.936,0.608-0.936l33.649-52.363l0.554-0.861c0.414-0.677,0.78-1.382,1.114-2.11
				c0.187-0.405,0.36-0.819,0.521-1.239c0.005-0.014,0.01-0.025,0.017-0.039c0.146-0.39,0.285-0.787,0.407-1.186
				c0.064-0.205,0.122-0.409,0.176-0.617c0.109-0.385,0.204-0.775,0.289-1.168c0.004,0.063,0.007,0.122,0.007,0.184v-0.225
				c0.091-0.418,0.167-0.841,0.229-1.27c0.141-0.977,0.22-1.978,0.22-2.998V14.138c0-0.761-0.159-1.484-0.449-2.139
				c-0.54-1.246-1.539-2.245-2.784-2.788c-0.656-0.286-1.38-0.445-2.142-0.445h-38.453c-0.008,0-0.012,0-0.018,0
				c-0.755,0.003-1.471,0.16-2.122,0.445c0,0,0,0-0.004,0c-1.244,0.543-2.241,1.542-2.786,2.788
				c-0.284,0.654-0.444,1.378-0.444,2.139c0,0,0,105.544,0,105.646c0,1.068,0.315,2.059,0.852,2.895
				c0.135,0.209,0.28,0.411,0.444,0.6c0.525,0.613,1.188,1.106,1.938,1.433c0.657,0.287,1.377,0.444,2.14,0.444h42.809
				c0.582,0,1.056-0.47,1.056-1.055v-6.256C800,117.26,799.526,116.79,798.944,116.79z M789.357,57.923
				c-0.224,0.432-0.667,1.187-0.903,1.581c0,0.001-0.003,0.004-0.003,0.007c-0.01,0.016-0.02,0.031-0.028,0.046
				c-0.018,0.031-0.034,0.06-0.051,0.083c-0.044,0.076-0.07,0.119-0.07,0.119l-29.17,45.393V18.667
				c0.003-0.026,0.003-0.048,0.008-0.075c0.119-0.745,0.703-1.329,1.447-1.449c0.026-0.005,0.051-0.005,0.078-0.007h28.73
				c0,0,0.662,0.014,0.759,0.028c0.729,0.125,1.304,0.699,1.43,1.428c0.005,0.031,0.005,0.062,0.01,0.093v30.052
				c0,0.305-0.01,0.61-0.023,0.916c-0.004,0.098-0.039,0.59-0.063,0.921c-0.009,0.107-0.045,0.574-0.133,1.122
				c-0.027,0.158-0.052,0.313-0.076,0.468c-0.022,0.119-0.043,0.235-0.065,0.352c-0.036,0.186-0.14,0.665-0.153,0.719
				c-0.08,0.352-0.174,0.701-0.271,1.048c-0.015,0.048-0.03,0.098-0.044,0.147c-0.003,0.003-0.003,0.004-0.004,0.007
				c-0.091,0.311-0.188,0.616-0.295,0.918c0,0.003-0.002,0.008-0.002,0.011c-0.016,0.031-0.025,0.061-0.035,0.092
				c-0.245,0.691-0.528,1.362-0.845,2.017C789.51,57.629,789.434,57.776,789.357,57.923z"/>
			<g>
			</g>
		</g>
	</g>
</g>
</svg>
