<?xml version="1.0" encoding="utf-8"?>
<!-- Generated by IcoMoon.io -->
<!DOCTYPE svg PUBLIC "-//W3C//DTD SVG 1.1//EN" "http://www.w3.org/Graphics/SVG/1.1/DTD/svg11.dtd">
<svg version="1.1" xmlns="http://www.w3.org/2000/svg" xmlns:xlink="http://www.w3.org/1999/xlink" width="100" height="100" viewBox="0 0 100 100">
<g>
</g>
	<path d="M78.125 12.5h-56.25c-5.178 0-9.375 4.197-9.375 9.375v3.125h75v-3.125c0-5.178-4.197-9.375-9.375-9.375zM61.75 6.25l1.379 9.863h-26.257l1.378-9.863h23.5zM62.5 0h-25c-2.578 0-4.979 2.089-5.336 4.642l-1.828 13.079c-0.357 2.553 1.461 4.642 4.039 4.642h31.25c2.578 0 4.396-2.089 4.039-4.642l-1.828-13.079c-0.357-2.553-2.758-4.642-5.336-4.642v0zM79.688 31.25h-59.375c-3.438 0-5.995 2.801-5.684 6.224l5.118 56.301c0.311 3.423 3.378 6.224 6.816 6.224h46.875c3.438 0 6.505-2.801 6.816-6.224l5.118-56.301c0.311-3.423-2.246-6.224-5.684-6.224zM37.5 87.5h-9.375l-3.125-43.75h12.5v43.75zM56.25 87.5h-12.5v-43.75h12.5v43.75zM71.875 87.5h-9.375v-43.75h12.5l-3.125 43.75z" fill="#ffffff" />
</svg>
