<?xml version="1.0" encoding="utf-8"?>
<!-- Generator: Adobe Illustrator 16.0.0, SVG Export Plug-In . SVG Version: 6.00 Build 0)  -->
<!DOCTYPE svg PUBLIC "-//W3C//DTD SVG 1.0//EN" "http://www.w3.org/TR/2001/REC-SVG-20010904/DTD/svg10.dtd">
<svg version="1.0" id="Layer_1" xmlns="http://www.w3.org/2000/svg" xmlns:xlink="http://www.w3.org/1999/xlink" x="0px" y="0px"
	 width="47.057px" height="40px" viewBox="0 0 47.057 40" enable-background="new 0 0 47.057 40" xml:space="preserve">
<rect x="-503.832" y="-107.222" display="none" fill="#45494F" width="1110" height="793.333"/>
<g>
	<g>
		<path fill-rule="evenodd" clip-rule="evenodd" fill="#FFFFFF" d="M9.057,9.627V0h-3v9.514c-3.364,0.587-5.923,3.515-5.923,7.047
			c0,3.533,2.559,6.459,5.923,7.047v16.376h3v-16.49c3.101-0.786,5.399-3.586,5.399-6.934C14.456,13.215,12.158,10.414,9.057,9.627z
			 M7.292,21.378c-2.661,0-4.818-2.156-4.818-4.817c0-2.66,2.157-4.817,4.818-4.817c2.661,0,4.818,2.157,4.818,4.817
			C12.11,19.222,9.954,21.378,7.292,21.378z M41.057,5.573V0h-3v5.333c-3.516,0.457-6.233,3.456-6.233,7.095
			c0,3.64,2.717,6.638,6.233,7.095v20.461h3V19.283c2.944-0.889,5.09-3.62,5.09-6.855C46.147,9.193,44.001,6.462,41.057,5.573z
			 M38.983,17.246c-2.661,0-4.818-2.157-4.818-4.818c0-2.661,2.157-4.818,4.818-4.818c2.661,0,4.817,2.157,4.817,4.818
			C43.8,15.089,41.644,17.246,38.983,17.246z M24.057,21.904V0h-3v22.048c-3.063,0.812-5.324,3.595-5.324,6.914
			c0,3.319,2.261,6.102,5.324,6.914v4.108h3v-3.964c3.401-0.557,6-3.5,6-7.059C30.057,25.403,27.458,22.46,24.057,21.904z
			 M22.895,33.778c-2.66,0-4.817-2.155-4.817-4.816c0-2.661,2.157-4.817,4.817-4.817c2.66,0,4.818,2.156,4.818,4.817
			C27.712,31.624,25.554,33.778,22.895,33.778z"/>
	</g>
</g>
</svg>
